<svg xmlns="http://www.w3.org/2000/svg" xmlns:xlink="http://www.w3.org/1999/xlink" viewBox="0 0 938.82 215.64"><defs><style>.cls-1{fill:#bcbcbc;}.cls-2{fill:#6b6b6b;}.cls-3{fill:url(#radial-gradient);}.cls-4{fill:url(#radial-gradient-2);}.cls-5{fill:url(#radial-gradient-3);}.cls-6{fill:url(#radial-gradient-4);}.cls-7{fill:#0674ed;}.cls-8{fill:#f7941d;}</style><radialGradient id="radial-gradient" cx="966.68" cy="-702.68" r="183.96" gradientTransform="matrix(0.58, -0.81, -0.81, -0.58, -1019.14, 324.47)" gradientUnits="userSpaceOnUse"><stop offset="0.02" stop-color="#94fff1"/><stop offset="0.17" stop-color="#0af"/><stop offset="0.17" stop-color="#00a8fe"/><stop offset="0.28" stop-color="#0084dd"/><stop offset="0.4" stop-color="#0067c3"/><stop offset="0.53" stop-color="#004fae"/><stop offset="0.66" stop-color="#003f9f"/><stop offset="0.81" stop-color="#003597"/><stop offset="1" stop-color="#003294"/></radialGradient><radialGradient id="radial-gradient-2" cx="746.05" cy="-832.48" r="158.03" gradientTransform="matrix(0.58, -0.81, -0.81, -0.58, -1019.14, 324.47)" gradientUnits="userSpaceOnUse"><stop offset="0.02" stop-color="#94fff1"/><stop offset="0.35" stop-color="#0af"/><stop offset="0.5" stop-color="#008ce0"/><stop offset="0.72" stop-color="#0065b7"/><stop offset="0.89" stop-color="#004c9d"/><stop offset="1" stop-color="#004394"/></radialGradient><radialGradient id="radial-gradient-3" cx="794.71" cy="-819.35" r="63.01" xlink:href="#radial-gradient-2"/><radialGradient id="radial-gradient-4" cx="-847.95" cy="61.19" r="85.31" gradientTransform="matrix(-1, 0, 0, 1, -702.18, 0)" gradientUnits="userSpaceOnUse"><stop offset="0.06" stop-color="#ffc93e"/><stop offset="0.17" stop-color="#ffc63e"/><stop offset="0.25" stop-color="#fdbc3e"/><stop offset="0.32" stop-color="#fbac3e"/><stop offset="0.39" stop-color="#f7953f"/><stop offset="0.45" stop-color="#f3773f"/><stop offset="0.48" stop-color="#f16a3f"/></radialGradient></defs><g id="Layer_2" data-name="Layer 2"><g id="Layer_1-2" data-name="Layer 1"><rect class="cls-1" x="236.76" y="22.59" width="3.8" height="159.65"/><path class="cls-2" d="M493.41,215.11h-3.75l-1.37-3.63h-8.61l-1.37,3.63h-3.75l7.24-18.2h4.37Zm-12.48-6.76H487l-3-7.54h-.13Z"/><path class="cls-2" d="M503.64,196.91c5.62,0,9.37,3.9,9.37,9.1s-3.75,9.1-9.37,9.1h-6.73v-18.2Zm-3.24,3v12.22h3.24c3.37,0,5.75-2.47,5.75-6.11s-2.38-6.11-5.75-6.11Z"/><path class="cls-2" d="M524,196.91c5.62,0,9.36,3.9,9.36,9.1s-3.74,9.1-9.36,9.1H517.3v-18.2Zm-3.25,3v12.22H524c3.37,0,5.74-2.47,5.74-6.11s-2.37-6.11-5.74-6.11Z"/><path class="cls-2" d="M557.72,201.59l-3.62,13.52h-4.62l-4.87-18.2h3.75L552,210.57h.13l3.57-13.66h4.22l3.57,13.66h.12l3.62-13.66H571l-4.87,18.2h-4.62l-3.62-13.52Z"/><path class="cls-2" d="M583,196.39c5.49,0,9.36,4,9.36,9.62s-3.87,9.63-9.36,9.63-9.36-4-9.36-9.63S577.54,196.39,583,196.39Zm0,3.12c-3.24,0-5.74,2.6-5.74,6.5s2.5,6.5,5.74,6.5,5.74-2.6,5.74-6.5S586.28,199.51,583,199.51Z"/><path class="cls-2" d="M604.67,196.91c4.75,0,7.24,2.6,7.24,6a5.6,5.6,0,0,1-3.24,5.2v.13l4.62,6.89h-4.12l-4.12-6.24h-4.87v6.24h-3.49v-18.2Zm0,3h-4.49v6h4.49c2.37,0,3.62-1.56,3.62-3C608.29,201.2,607,199.9,604.67,199.9Z"/><path class="cls-2" d="M630.81,196.91v3h-6v15.21h-3.49V199.9h-6v-3Z"/><path class="cls-2" d="M650.51,196.91v18.2H647v-7.54h-9v7.54h-3.5v-18.2H638v7.67h9v-7.67Z"/><path class="cls-2" d="M678.19,196.91v3h-6v15.21h-3.49V199.9h-6v-3Z"/><path class="cls-2" d="M689.78,196.39c5.49,0,9.36,4,9.36,9.62s-3.87,9.63-9.36,9.63-9.37-4-9.37-9.63S684.28,196.39,689.78,196.39Zm0,3.12c-3.25,0-5.74,2.6-5.74,6.5s2.49,6.5,5.74,6.5,5.74-2.6,5.74-6.5S693,199.51,689.78,199.51Z"/><path class="cls-2" d="M723.88,196.91h3.74l-7.11,12.49v5.71H717V209.4l-7.11-12.49h3.74l5,8.84h.25Z"/><path class="cls-2" d="M739.25,196.39c5.5,0,9.37,4,9.37,9.62s-3.87,9.63-9.37,9.63-9.36-4-9.36-9.63S733.76,196.39,739.25,196.39Zm0,3.12c-3.24,0-5.74,2.6-5.74,6.5s2.5,6.5,5.74,6.5,5.75-2.6,5.75-6.5S742.5,199.51,739.25,199.51Z"/><path class="cls-2" d="M752.81,207.83V196.91h3.49v10.92c0,2.86,1.75,4.68,4.5,4.68s4.49-1.82,4.49-4.68V196.91h3.5v10.92c0,4.55-3.12,7.81-8,7.81S752.81,212.38,752.81,207.83Z"/><path class="cls-2" d="M782,196.91c4.74,0,7.24,2.6,7.24,6a5.6,5.6,0,0,1-3.25,5.2v.13l4.62,6.89h-4.12l-4.12-6.24h-4.87v6.24H774v-18.2Zm0,3h-4.5v6H782c2.37,0,3.62-1.56,3.62-3C785.59,201.2,784.34,199.9,782,199.9Z"/><path class="cls-2" d="M802.69,196.91h7.74c4.61,0,6.61,2.08,6.61,4.94a3.81,3.81,0,0,1-2.87,3.57v.13s4.12.72,4.12,4.36c0,2.74-2.37,5.2-6.89,5.2h-8.71Zm10.73,5.2c0-1.17-1-2.21-3-2.21h-4.25v4.42h4.25C812.42,204.32,813.42,203.28,813.42,202.11Zm-7.24,5.21v4.8h5.24c2.25,0,3.25-1,3.25-2.34s-1-2.46-3.25-2.46Z"/><path class="cls-2" d="M822.26,207.83V196.91h3.49v10.92c0,2.86,1.75,4.68,4.5,4.68s4.49-1.82,4.49-4.68V196.91h3.5v10.92c0,4.55-3.12,7.81-8,7.81S822.26,212.38,822.26,207.83Z"/><path class="cls-2" d="M856.06,198.6l-1.37,2.47a8.29,8.29,0,0,0-4.62-1.56c-2.37,0-3.5,1.17-3.5,2.08,0,3.64,9.87,1.82,9.87,8.19,0,3.12-2.63,5.86-7.62,5.86a10.18,10.18,0,0,1-6.61-2.48l1.49-2.47a7.7,7.7,0,0,0,4.87,2c2.87,0,4.25-1.44,4.25-2.87,0-3.25-9.87-1.56-9.87-8.19,0-2.6,2.5-5.2,6.87-5.2A10.15,10.15,0,0,1,856.06,198.6Z"/><path class="cls-2" d="M864,215.11h-3.5v-18.2H864Z"/><path class="cls-2" d="M881.77,209.4V196.91h3.5v18.2h-3.75l-8.61-12.48h-.12v12.48h-3.5v-18.2H873l8.61,12.49Z"/><path class="cls-2" d="M890.56,196.91h14v3H894.06v4.68h7.23v3h-7.23v4.55h10.73v3H890.56Z"/><path class="cls-2" d="M921.37,198.6,920,201.07a8.25,8.25,0,0,0-4.62-1.56c-2.37,0-3.49,1.17-3.49,2.08,0,3.64,9.86,1.82,9.86,8.19,0,3.12-2.62,5.86-7.61,5.86a10.19,10.19,0,0,1-6.62-2.48l1.5-2.47a7.67,7.67,0,0,0,4.87,2c2.87,0,4.24-1.44,4.24-2.87,0-3.25-9.86-1.56-9.86-8.19,0-2.6,2.5-5.2,6.87-5.2A10.15,10.15,0,0,1,921.37,198.6Z"/><path class="cls-2" d="M938.44,198.6l-1.37,2.47a8.29,8.29,0,0,0-4.62-1.56c-2.37,0-3.5,1.17-3.5,2.08,0,3.64,9.87,1.82,9.87,8.19,0,3.12-2.62,5.86-7.62,5.86a10.18,10.18,0,0,1-6.61-2.48l1.49-2.47a7.7,7.7,0,0,0,4.87,2c2.87,0,4.25-1.44,4.25-2.87,0-3.25-9.86-1.56-9.86-8.19,0-2.6,2.49-5.2,6.86-5.2A10.12,10.12,0,0,1,938.44,198.6Z"/><path class="cls-3" d="M179.08,35.46C167.73,28.71,117.67,11.52,86,46.84c0,0-45,53.65,1.54,77.22a99.8,99.8,0,0,1-11.13-3.36S39.68,107.44,31.23,77.25L68.06,25.91c2.29-2.81.47-13.31-9.45-9.81A53.94,53.94,0,0,0,39.89,30.82a132.45,132.45,0,0,1,13-18.32,101.81,101.81,0,0,1,126.14,23Z"/><path class="cls-4" d="M39.89,30.82a53.93,53.93,0,0,0-9.11,22.36C20.41,100.49,76.42,120.7,76.42,120.7a99.8,99.8,0,0,0,11.13,3.36h0s45.86,19.18,101.13-23.5c5.53-4.11,8.36-1.83,10.63,3,4.31,10.58.1,29-3.52,37.66a.5.5,0,0,1-.13-.06c-5.39,10.19-11.36,17.41-17.49,22.47,3.14-3.58,4.09-4.57,5.48-7.82,1.58-4.54,1-9.21-18.91-3.56-11.11,3.67-31.8,12.15-41.94,15-48.92,18.68-83,8.08-99.18-.12A101.9,101.9,0,0,1,52.94,12.5,132.45,132.45,0,0,0,39.89,30.82Z"/><path class="cls-5" d="M42.5,184.61a101.91,101.91,0,0,1-18.88-17.52c16.21,8.2,50.26,18.8,99.18.12a55.78,55.78,0,0,0,25.13,7c27.85-.65,42.34-22.86,47.73-33.05a.5.5,0,0,0,.13.06A101.81,101.81,0,0,1,42.5,184.61Z"/><path class="cls-6" d="M146.88,59.5a26.24,26.24,0,1,0,6,36.62A26.24,26.24,0,0,0,146.88,59.5Z"/><path class="cls-7" d="M297,147.65v34.57h-20V95.65a10.07,10.07,0,0,1,10.12-10.12h32.89q15.45,0,23.05,7.87,7.86,7.88,7.87,23.33,0,14.63-7.59,23-7.59,7.88-21.93,7.87Zm0-17.43h19.4q7.86,0,11.24-3.37,3.65-3.09,3.65-10.68,0-6.47-3.37-10.4-3.94-3.37-10.4-3.37H297Z"/><path class="cls-7" d="M356.81,182.22V146q0-11,3.23-18.41a30.57,30.57,0,0,1,8.86-11.94,34.86,34.86,0,0,1,12.51-6.19,55.46,55.46,0,0,1,14.75-2H399v20h-6.46q-8.16,0-12.09,3.94t-3.93,12.36v38.51Z"/><path class="cls-7" d="M412.38,175.48a27.82,27.82,0,0,1-8.44-13.64A62.9,62.9,0,0,1,401.41,144a56.72,56.72,0,0,1,2.11-15.18,31.34,31.34,0,0,1,6.61-12.65,29.16,29.16,0,0,1,18.83-10,43.32,43.32,0,0,1,20.8,1.83,28.64,28.64,0,0,1,15.74,14.61,46.74,46.74,0,0,1,4.78,21.65,53.51,53.51,0,0,1-2,15.46,39.61,39.61,0,0,1-5.06,11,28.06,28.06,0,0,1-17.14,11.52,38.31,38.31,0,0,1-18.7.43Q418,180.54,412.38,175.48ZM425.87,126q-5.91,6.46-5.34,19.25t4.78,17.85c1.12,1.5,3.09,2.77,5.9,3.79a13.37,13.37,0,0,0,8.57.29q4.35-1.27,7.73-6.33t3.66-16.3q0-10.12-3.24-15.18t-7.45-6.47a13.72,13.72,0,0,0-8.43-.14A14.7,14.7,0,0,0,425.87,126Z"/><path class="cls-7" d="M525,85.25h9.56a9,9,0,0,1,6.74,3,9.39,9.39,0,0,1,2.82,6.61v54.81q0,20-11.53,27a47.15,47.15,0,0,1-25,7,44.28,44.28,0,0,1-14.33-2.39A23.64,23.64,0,0,1,482,173.51q-8.14-10.39-8.15-28.39,0-17.7,8.15-28.39,8.44-11,21.65-11A26.27,26.27,0,0,1,516,108.58a26.87,26.87,0,0,1,9,8.71Zm-32,59q0,11.24,4.21,17.14t12.09,5.91a13.69,13.69,0,0,0,11.81-5.91q3.93-5.89,3.93-17.14,0-10.12-4.21-16a14.69,14.69,0,0,0-12.09-5.63,13.41,13.41,0,0,0-11.53,5.91Q493,134.17,493,144.28Z"/><path class="cls-7" d="M614.86,107.45V151.3q0,20-10.4,26.14a43.71,43.71,0,0,1-22.77,6.19,45.15,45.15,0,0,1-22.07-6.75q-10-6.18-10-25.58V107.45h19.67v47.79q0,6.75,3.94,9.84a14.15,14.15,0,0,0,9,3.09,14.77,14.77,0,0,0,9.14-3.09q4.07-3.09,4.07-9.84V117a9.43,9.43,0,0,1,2.67-6.74,9.1,9.1,0,0,1,6.89-2.82Z"/><path class="cls-7" d="M672.11,159.17h14q-3.09,11.81-11.8,18-8.72,6.48-21.93,6.47-16,0-25-10.4-9-10.12-9-28.95,0-18,8.72-28.11,9-10.4,25-10.4,16.88,0,26.14,10.12a38.42,38.42,0,0,1,7.31,14.33H665.92a16.17,16.17,0,0,0-2.81-4.21q-3.65-3.95-10.4-3.94A13.69,13.69,0,0,0,642.59,126q-5.05,5.62-5.05,18.55t5.05,18.27q3.66,4.5,11,4.5a16,16,0,0,0,8.15-2,3.91,3.91,0,0,0,1.54-1l1.55-1.54a12.16,12.16,0,0,1,2.25-2.25A7.73,7.73,0,0,1,672.11,159.17Z"/><path class="cls-7" d="M724.58,182.22a145.5,145.5,0,0,1-20.1-.28q-10.82-.84-10.82-13.77V85.53h10.12a8.93,8.93,0,0,1,6.47,2.81,9.22,9.22,0,0,1,2.81,6.75v12.65h11.52v3.93a9.1,9.1,0,0,1-2.81,6.89,9.43,9.43,0,0,1-6.74,2.67h-2v41.6q0,4.78,5.62,4.78h5.9Z"/><path class="cls-7" d="M726.74,157.49h19.11q.28,5.63,4.22,8.43,4.21,2.82,11.24,2.81a18.06,18.06,0,0,0,8.72-2,6,6,0,0,0,3.37-5.34q0-5.05-11.8-7.59a53.49,53.49,0,0,1-7.59-1.68q-14.91-3.66-20-8.72-5.62-5.06-5.62-13.49a22.38,22.38,0,0,1,8.15-17.71q8.43-6.45,21.92-6.46,14.61,0,23.33,6.46a24.74,24.74,0,0,1,8.72,18.27H778.46a8.93,8.93,0,0,1-8.15-4.77l-2.25-2.25q-3.37-2.53-9.27-2.53-5.64,0-8.44,1.68a5.7,5.7,0,0,0-2.53,5.06q0,4.5,14.62,7.59a29.74,29.74,0,0,0,2.95.85,11.49,11.49,0,0,0,2.39.28q14.34,3.65,20,8.43,5.32,5.06,5.34,13.49,0,12.38-9,19.11-8.43,6.19-25.29,6.19-16,0-23.9-6.47-8.16-6.45-8.15-18.83Z"/><path class="cls-8" d="M278.68,78.65V68.86h42a8.49,8.49,0,0,0,6.05-2,7,7,0,0,0,2.12-5.32,6.74,6.74,0,0,0-2.12-5.44,9,9,0,0,0-6.05-1.81H295a20.22,20.22,0,0,1-7.14-1.2,15.46,15.46,0,0,1-5.4-3.31A14.78,14.78,0,0,1,279,44.73a16.76,16.76,0,0,1-1.19-6.4A17.23,17.23,0,0,1,279,32a13.39,13.39,0,0,1,3.31-5,15.76,15.76,0,0,1,5.44-3.28,21.2,21.2,0,0,1,7.4-1.19h40.25v9.79H295.1a7.16,7.16,0,0,0-5.24,1.81,6.72,6.72,0,0,0-1.85,5,6.52,6.52,0,0,0,1.88,5A7.17,7.17,0,0,0,295,46H320.7q8.57,0,13,4t4.44,12.18a19.19,19.19,0,0,1-1.08,6.55A14.16,14.16,0,0,1,333.81,74a14.8,14.8,0,0,1-5.44,3.43,21.76,21.76,0,0,1-7.67,1.23Z"/><path class="cls-8" d="M346.45,78.65v-56h41a27.87,27.87,0,0,1,7.44.92,16.81,16.81,0,0,1,5.74,2.74,12.15,12.15,0,0,1,3.7,4.55,14.28,14.28,0,0,1,1.31,6.28,16.17,16.17,0,0,1-.61,4.71,11,11,0,0,1-1.7,3.43,10.34,10.34,0,0,1-2.51,2.39,10.73,10.73,0,0,1-3,1.42,12.67,12.67,0,0,1,6.32,4.48,13.12,13.12,0,0,1,2.47,8.17,18.31,18.31,0,0,1-1.28,7A15.09,15.09,0,0,1,401.78,74a16,16,0,0,1-5.71,3.43,21.91,21.91,0,0,1-7.44,1.19Zm16.89-24.36V46h24.21c2.78,0,4.84-.52,6.17-1.54s2-2.78,2-5.25a6.7,6.7,0,0,0-.85-3.58,5.6,5.6,0,0,0-2.43-2.09,12,12,0,0,0-3.78-1,48.23,48.23,0,0,0-4.89-.23H356.25V68.94h28.37a28.32,28.32,0,0,0,4.86-.39,12.25,12.25,0,0,0,3.86-1.27,6.73,6.73,0,0,0,2.5-2.27,6.37,6.37,0,0,0,.89-3.47,6.73,6.73,0,0,0-2.16-5.36q-2.16-1.89-6.32-1.89Z"/><path class="cls-8" d="M440.84,78.65A26.62,26.62,0,0,1,430,76.46a26.76,26.76,0,0,1-14.34-15.08,31,31,0,0,1-2-11.33,30,30,0,0,1,2-11.26,24.91,24.91,0,0,1,5.71-8.68A25.7,25.7,0,0,1,430,24.56a29.26,29.26,0,0,1,10.84-2h13.64a29.93,29.93,0,0,1,11.15,2,24.86,24.86,0,0,1,14.3,14.3,29.94,29.94,0,0,1,2,11.15,31,31,0,0,1-2.05,11.33,26.7,26.7,0,0,1-25.41,17.27Zm13.64-9.79a17.77,17.77,0,0,0,7.1-1.39,16.7,16.7,0,0,0,9.25-9.63,20.3,20.3,0,0,0,1.31-7.33,20,20,0,0,0-1.31-7.29,16.7,16.7,0,0,0-3.66-5.74,16.89,16.89,0,0,0-5.59-3.74,18.29,18.29,0,0,0-7.1-1.35H440.84a17.76,17.76,0,0,0-7,1.35,16.59,16.59,0,0,0-5.52,3.74,17.09,17.09,0,0,0-3.62,5.7,19.91,19.91,0,0,0-1.31,7.33,20.3,20.3,0,0,0,1.31,7.33,17.43,17.43,0,0,0,3.62,5.82,16.63,16.63,0,0,0,5.52,3.81,17.26,17.26,0,0,0,7,1.39Z"/><path class="cls-2" d="M399.49,193.4H277.68v3.34H398.62C398.77,195.63,399.26,194.51,399.49,193.4Z"/><path class="cls-2" d="M462.06,193.4H340.24v3.34H461.18C461.33,195.63,461.82,194.51,462.06,193.4Z"/><rect class="cls-2" x="277.68" y="202.65" width="8.2" height="3.35"/><rect class="cls-2" x="293.32" y="202.65" width="8.2" height="3.35"/><rect class="cls-2" x="308.96" y="202.65" width="8.2" height="3.35"/><rect class="cls-2" x="324.6" y="202.65" width="8.2" height="3.35"/><rect class="cls-2" x="340.24" y="202.65" width="8.2" height="3.35"/><rect class="cls-2" x="355.88" y="202.65" width="8.2" height="3.35"/><rect class="cls-2" x="371.52" y="202.65" width="8.2" height="3.35"/><rect class="cls-2" x="387.16" y="202.65" width="8.2" height="3.35"/><rect class="cls-2" x="404.42" y="202.65" width="8.2" height="3.35"/><rect class="cls-2" x="420.07" y="202.65" width="8.2" height="3.35"/><rect class="cls-2" x="435.71" y="202.65" width="8.2" height="3.35"/><rect class="cls-2" x="451.35" y="202.65" width="8.2" height="3.35"/><path class="cls-2" d="M393.23,215.33c.34-.93.74-1.84,1.11-2.76,0-.1.08-.21.13-.31H277.68v3.35H393.19A2.7,2.7,0,0,0,393.23,215.33Z"/><path class="cls-2" d="M458.31,215.33c.34-.93.74-1.84,1.11-2.76,0-.1.08-.21.13-.31H342.75v3.35H458.27C458.28,215.52,458.3,215.42,458.31,215.33Z"/></g></g></svg>